<?xml version="1.0" standalone="no"?>
<!DOCTYPE svg PUBLIC "-//W3C//DTD SVG 20010904//EN"
 "http://www.w3.org/TR/2001/REC-SVG-20010904/DTD/svg10.dtd">
<svg version="1.0" xmlns="http://www.w3.org/2000/svg"
 width="1836.000000pt" height="1836.000000pt" viewBox="0 0 1836.000000 1836.000000"
 preserveAspectRatio="xMidYMid meet">
<metadata>
Created by potrace 1.11, written by Peter Selinger 2001-2013
</metadata>
<g transform="translate(0.000000,1836.000000) scale(0.100000,-0.100000)"
fill="#000000" stroke="none">
<path d="M9814 18033 c-104 -180 -197 -344 -208 -363 -10 -19 -24 -42 -32 -51
-8 -8 -14 -18 -14 -21 0 -3 -32 -61 -71 -129 -40 -68 -79 -137 -89 -154 -9
-16 -31 -53 -48 -81 -18 -28 -32 -54 -32 -57 0 -4 -15 -30 -34 -59 -18 -29
-46 -77 -61 -105 -15 -29 -30 -53 -34 -53 -3 0 -31 44 -61 97 -30 53 -62 108
-70 122 -22 38 -83 143 -96 166 -6 11 -20 36 -31 55 -11 19 -45 78 -75 130
-30 52 -96 167 -147 255 -51 88 -140 243 -198 345 -111 193 -133 227 -133 199
0 -9 -14 -49 -30 -90 -17 -41 -30 -75 -29 -77 1 -3 -15 -48 -31 -87 -5 -11
-21 -54 -35 -95 -14 -41 -44 -122 -65 -180 -21 -58 -69 -188 -105 -290 -37
-102 -69 -192 -73 -200 -3 -8 -6 -17 -7 -20 -1 -3 -4 -12 -8 -20 -3 -8 -39
-106 -79 -217 -40 -112 -77 -203 -83 -203 -5 1 -28 24 -50 52 -22 27 -49 60
-60 72 -12 13 -32 36 -45 53 -44 54 -324 388 -330 393 -3 3 -86 102 -185 220
-99 118 -184 220 -190 226 -5 6 -44 52 -85 102 -41 50 -77 88 -81 84 -5 -6
-17 -67 -46 -242 -2 -14 -15 -86 -28 -160 -14 -74 -27 -151 -30 -170 -3 -19
-8 -42 -10 -50 -2 -8 -6 -32 -9 -52 -9 -61 -17 -109 -22 -132 -2 -11 -7 -36
-10 -55 -3 -18 -8 -43 -10 -55 -2 -11 -6 -37 -10 -56 -3 -19 -9 -55 -14 -80
-5 -25 -12 -63 -15 -84 -3 -21 -7 -48 -10 -60 -3 -12 -7 -32 -9 -46 -4 -25
-23 -132 -32 -180 -2 -14 -7 -45 -11 -70 -3 -25 -8 -50 -12 -57 -5 -9 -270
205 -586 475 -11 9 -90 75 -175 147 -85 71 -160 134 -166 140 -6 5 -30 26 -54
45 -56 45 -169 140 -195 163 -54 49 -50 102 -50 -759 0 -651 -2 -793 -13 -789
-11 4 -434 248 -563 324 -19 11 -45 26 -59 34 -53 28 -578 332 -645 372 -72
43 -122 65 -112 48 3 -5 11 -38 17 -74 5 -35 12 -75 15 -89 2 -14 13 -77 25
-140 11 -63 22 -126 25 -140 3 -13 7 -40 10 -60 3 -20 8 -47 10 -60 3 -14 9
-50 15 -80 5 -30 11 -66 14 -80 4 -21 18 -102 41 -235 3 -16 14 -77 25 -135
10 -58 21 -121 24 -140 3 -19 8 -46 11 -60 3 -14 7 -38 10 -55 2 -16 11 -68
20 -115 19 -107 20 -101 -12 -89 -16 6 -75 28 -133 49 -151 54 -1083 393
-1223 445 -113 41 -119 43 -113 22 3 -12 124 -348 270 -747 214 -588 261 -726
248 -729 -9 -2 -39 2 -67 7 -27 6 -66 13 -85 16 -19 3 -44 7 -55 10 -11 2 -87
16 -170 30 -82 14 -161 28 -175 31 -13 2 -40 7 -60 10 -20 3 -47 8 -60 10 -14
3 -90 17 -170 31 -80 14 -167 29 -195 34 -27 5 -102 18 -165 29 -63 11 -166
29 -229 40 -63 11 -116 19 -118 18 -1 -2 8 -19 22 -37 14 -19 25 -37 25 -41 0
-4 36 -69 81 -145 44 -77 84 -146 89 -154 154 -265 316 -547 319 -555 2 -5 15
-27 28 -48 22 -35 146 -249 200 -344 l24 -43 -802 -2 -802 -3 269 -320 c148
-176 363 -432 478 -570 115 -137 225 -268 245 -290 l35 -39 -35 -8 c-18 -4
-50 -10 -69 -13 -20 -3 -47 -8 -60 -10 -31 -7 -184 -34 -229 -41 -18 -3 -43
-8 -55 -10 -39 -8 -321 -57 -343 -59 -12 -2 -34 -6 -50 -9 -41 -9 -73 -15
-113 -21 -20 -3 -47 -8 -60 -10 -14 -3 -41 -8 -60 -11 -19 -3 -42 -7 -50 -9
-8 -2 -28 -6 -45 -9 -46 -7 -207 -35 -230 -40 -11 -2 -55 -9 -97 -16 -43 -7
-78 -16 -78 -19 0 -4 8 -13 18 -21 9 -8 73 -62 142 -119 69 -58 127 -107 130
-111 3 -3 30 -25 60 -50 30 -25 64 -53 75 -62 11 -9 54 -45 96 -80 109 -91
251 -211 271 -228 9 -8 107 -89 217 -180 109 -91 200 -168 200 -171 1 -8 -32
-21 -509 -193 -168 -61 -284 -104 -425 -156 -27 -10 -165 -61 -306 -111 l-257
-93 45 -28 c24 -15 46 -28 49 -28 2 0 21 -11 42 -23 20 -13 57 -35 82 -49 25
-14 86 -49 135 -78 50 -29 110 -64 134 -77 24 -14 168 -97 320 -185 152 -88
342 -199 423 -246 82 -46 148 -88 148 -91 0 -5 -116 -73 -374 -219 -22 -13
-51 -30 -63 -38 -12 -7 -37 -22 -57 -33 -19 -11 -137 -79 -263 -152 -254 -146
-279 -161 -326 -188 -93 -53 -119 -69 -205 -119 l-93 -55 53 -19 c29 -11 89
-32 133 -48 44 -15 125 -44 180 -64 55 -21 132 -49 170 -63 39 -13 77 -27 85
-30 8 -4 17 -7 20 -8 3 -1 12 -4 20 -8 8 -3 98 -36 200 -72 102 -36 196 -71
210 -77 14 -5 81 -30 150 -54 69 -24 134 -48 145 -53 11 -5 43 -17 70 -26 28
-10 53 -20 56 -24 4 -3 -74 -73 -172 -155 -99 -83 -187 -157 -197 -165 -9 -9
-42 -36 -72 -61 -48 -39 -165 -138 -296 -248 -21 -19 -59 -50 -83 -70 -25 -21
-103 -87 -175 -147 -72 -61 -150 -126 -173 -144 -45 -36 -52 -47 -30 -48 11
-1 279 -47 323 -57 12 -2 39 -7 60 -10 22 -4 66 -11 99 -17 33 -6 74 -12 90
-15 17 -2 66 -11 110 -20 44 -8 118 -22 165 -30 109 -18 134 -22 195 -34 28
-5 68 -12 90 -15 22 -3 63 -10 90 -16 28 -5 113 -21 189 -34 77 -14 141 -27
142 -28 2 -2 -9 -16 -24 -32 -24 -27 -175 -205 -287 -340 -22 -27 -44 -53 -50
-59 -5 -6 -91 -108 -189 -226 -99 -118 -193 -231 -210 -250 -17 -20 -49 -57
-71 -84 -22 -27 -44 -54 -50 -60 -25 -28 -155 -185 -155 -188 0 -2 360 -3 800
-2 804 1 821 0 791 -31 -5 -6 -18 -26 -29 -45 -21 -37 -132 -231 -227 -395
-32 -55 -107 -185 -168 -290 -60 -104 -118 -205 -128 -223 -82 -141 -130 -225
-157 -272 -14 -25 -36 -62 -49 -82 -12 -21 -23 -40 -23 -44 0 -3 19 -3 43 1
23 4 51 9 62 11 29 4 307 53 330 58 11 2 63 11 115 20 133 23 138 24 205 36
33 5 74 13 90 15 17 3 104 19 195 35 91 16 183 32 205 36 22 3 60 10 84 15 24
5 65 12 90 15 25 3 48 7 51 9 12 7 100 17 100 11 0 -3 -22 -65 -49 -138 -27
-73 -66 -178 -86 -233 -19 -55 -43 -120 -53 -145 -9 -25 -17 -47 -18 -50 0 -3
-4 -12 -7 -20 -12 -28 -69 -185 -71 -195 -1 -5 -4 -14 -7 -20 -4 -5 -14 -35
-24 -65 -10 -30 -21 -59 -25 -65 -5 -5 -8 -12 -9 -15 0 -8 -7 -32 -20 -70 -17
-50 -140 -388 -157 -434 -8 -21 -13 -41 -10 -43 2 -3 91 28 198 67 106 39 200
73 208 75 8 2 47 16 85 31 39 14 117 43 175 64 58 21 148 54 200 73 52 19 210
76 350 127 140 51 261 95 268 98 9 3 11 -3 7 -24 -7 -39 -65 -371 -71 -409 -2
-16 -7 -43 -11 -60 -3 -16 -7 -39 -9 -50 -1 -11 -14 -83 -28 -160 -13 -77 -27
-156 -31 -175 -3 -19 -12 -73 -21 -120 -9 -47 -22 -123 -30 -170 -8 -47 -16
-98 -20 -115 -24 -123 -49 -285 -45 -285 3 0 44 23 90 50 46 28 85 50 87 50 2
0 161 92 312 181 45 27 84 49 86 49 2 0 49 27 104 59 90 54 437 254 551 319
25 14 67 38 93 53 30 18 48 24 49 16 0 -6 1 -366 1 -799 1 -434 3 -788 5 -788
4 0 305 250 439 364 39 34 82 70 95 81 56 46 264 220 269 225 3 3 88 75 190
160 102 85 192 161 200 168 21 17 33 16 36 -5 2 -10 6 -34 9 -53 4 -19 9 -46
11 -60 13 -76 24 -139 29 -170 3 -19 8 -48 12 -65 3 -16 7 -39 8 -50 2 -11 12
-69 23 -130 11 -60 35 -189 52 -286 17 -97 33 -187 35 -200 7 -34 11 -55 39
-224 14 -82 28 -161 31 -175 3 -14 8 -41 11 -60 4 -19 8 -42 9 -50 2 -8 4 -19
4 -23 1 -7 54 52 136 152 11 14 34 41 51 60 17 20 102 122 189 226 150 179
360 429 558 665 49 58 91 106 95 108 4 1 27 -53 50 -120 24 -68 63 -175 86
-238 24 -63 126 -343 227 -622 101 -279 187 -508 190 -508 3 0 14 17 26 38 11
20 71 125 133 232 120 208 321 555 350 605 23 40 127 221 152 265 11 19 35 60
52 90 18 30 45 77 60 103 l28 49 32 -54 c18 -29 69 -116 113 -193 272 -473
378 -657 448 -775 17 -30 72 -124 120 -208 66 -116 90 -150 97 -138 5 8 24 57
42 108 131 365 179 496 187 513 5 11 22 58 39 105 16 47 43 123 61 170 38 103
108 296 119 330 26 76 90 244 95 249 4 3 9 1 13 -5 4 -6 25 -33 47 -59 55 -66
159 -190 210 -250 23 -27 80 -95 126 -150 46 -55 91 -109 101 -120 9 -11 58
-69 108 -130 92 -109 106 -126 235 -280 65 -76 125 -148 171 -204 l22 -25 7
44 c4 25 9 54 11 65 2 11 13 74 24 140 12 66 27 152 35 190 7 39 16 90 20 115
3 25 8 52 10 60 2 8 6 31 9 50 3 19 8 45 10 56 2 12 7 39 10 60 3 22 8 50 11
64 10 48 21 106 39 210 2 14 9 52 15 85 6 33 13 76 16 95 5 30 14 84 50 285 3
17 8 36 10 43 3 8 89 -58 222 -170 253 -211 336 -281 343 -288 3 -3 46 -39 95
-80 50 -41 92 -77 95 -80 3 -3 43 -37 90 -75 47 -38 87 -72 90 -75 3 -3 58
-51 124 -105 65 -55 130 -110 145 -122 14 -12 28 -22 31 -23 3 0 5 360 5 800
0 440 1 800 2 800 1 0 61 -34 132 -75 71 -41 145 -83 163 -93 18 -11 85 -50
148 -87 63 -37 133 -77 155 -89 22 -13 128 -73 235 -135 107 -63 210 -122 228
-132 17 -11 49 -29 70 -40 20 -12 74 -43 120 -70 45 -27 86 -49 91 -49 5 0 14
-7 21 -15 24 -29 28 -14 14 55 -7 39 -16 88 -19 108 -3 21 -8 49 -10 62 -3 14
-14 77 -25 140 -11 63 -27 151 -35 195 -8 44 -17 96 -20 115 -3 19 -17 96 -30
170 -13 74 -26 151 -29 170 -3 19 -10 60 -16 90 -6 30 -13 69 -16 85 -3 17
-16 91 -29 165 -13 74 -26 152 -29 172 l-6 37 68 -26 c37 -14 114 -42 172 -63
58 -20 249 -90 425 -154 176 -65 401 -146 500 -182 99 -36 187 -68 195 -71 83
-33 140 -49 140 -41 0 10 -211 601 -230 643 -5 11 -50 135 -101 275 -50 140
-118 326 -149 414 l-58 158 46 -6 c60 -8 101 -15 132 -22 14 -3 75 -14 135
-24 61 -11 151 -26 200 -35 50 -9 104 -18 120 -21 17 -3 93 -17 170 -30 77
-14 152 -27 167 -29 15 -2 35 -6 45 -9 10 -3 36 -7 57 -11 21 -3 48 -7 60 -10
12 -2 37 -7 56 -10 19 -2 45 -7 56 -9 12 -2 37 -7 55 -10 19 -3 85 -15 148
-26 63 -11 117 -18 119 -16 5 5 -45 94 -67 120 -9 10 -15 20 -13 22 2 4 -55
105 -138 244 -14 25 -29 52 -33 60 -4 8 -16 29 -26 45 -10 17 -52 89 -93 160
-42 72 -126 218 -188 325 -62 107 -124 215 -138 240 -13 25 -28 50 -32 55 -4
6 -19 31 -33 56 l-25 46 796 1 c597 0 796 3 794 11 -2 10 -184 232 -296 362
-17 19 -49 57 -71 84 -41 50 -259 310 -298 355 -12 14 -78 93 -147 175 -69 82
-134 161 -145 174 -11 13 -26 29 -32 37 -14 14 -17 34 -5 34 10 0 213 35 437
75 50 9 99 18 110 20 11 1 36 5 55 9 19 3 49 8 65 11 17 3 53 10 80 15 187 33
413 73 430 75 20 3 120 21 165 30 14 3 54 10 90 16 87 15 83 13 103 25 16 9
13 14 -25 44 -23 19 -220 185 -438 369 -217 184 -469 398 -560 475 -91 76
-166 142 -167 145 -2 3 39 21 90 40 50 18 135 49 187 68 52 19 129 47 170 63
41 15 127 47 190 69 63 23 124 46 135 51 11 4 52 20 90 33 39 14 113 41 165
60 52 19 165 61 250 92 85 31 170 62 188 69 l34 12 -434 249 c-238 136 -458
262 -488 278 -30 17 -83 48 -118 69 -34 21 -64 38 -67 38 -2 0 -45 25 -96 55
-50 30 -94 55 -97 55 -3 0 -24 12 -47 27 l-43 27 55 33 c31 18 56 33 58 33 1
0 95 54 210 120 115 66 209 120 211 120 1 0 35 19 76 43 40 24 93 55 118 69
38 21 420 240 570 327 78 44 85 49 80 54 -3 2 -151 57 -330 122 -179 64 -440
159 -580 210 -304 111 -503 184 -547 199 -17 7 -29 16 -25 22 4 5 75 66 157
134 83 69 152 127 155 130 3 3 115 98 250 210 135 112 247 206 250 209 3 4 73
62 155 131 83 68 156 130 163 137 8 8 29 25 48 40 34 25 36 35 11 39 -7 1 -25
5 -42 8 -16 3 -46 8 -65 11 -19 3 -42 8 -50 10 -8 2 -33 6 -55 10 -22 3 -76
12 -120 20 -130 23 -137 25 -200 35 -33 5 -69 12 -80 14 -11 2 -63 11 -115 20
-52 9 -106 18 -120 21 -23 4 -101 19 -165 30 -14 2 -52 9 -86 15 -33 6 -72 13
-87 15 -15 2 -65 11 -112 20 -47 8 -105 18 -129 21 -24 3 -61 11 -82 17 l-39
12 28 30 c25 27 96 111 147 174 11 13 38 45 60 71 22 26 58 69 81 96 23 27 70
83 105 125 35 41 80 95 99 119 19 24 40 48 45 54 6 6 80 94 165 196 85 102
160 190 165 196 6 6 28 32 50 59 22 27 53 64 68 82 l29 33 -805 2 -804 3 68
115 c37 63 79 135 92 160 13 25 57 101 97 170 40 69 81 139 90 155 10 17 68
118 130 225 371 644 328 560 290 555 -16 -2 -37 -6 -47 -9 -10 -3 -36 -7 -58
-11 -22 -3 -78 -12 -125 -21 -47 -9 -98 -18 -115 -20 -16 -2 -52 -8 -80 -14
-63 -12 -100 -19 -145 -26 -34 -5 -59 -9 -110 -19 -14 -3 -41 -8 -60 -11 -19
-3 -107 -18 -195 -34 -88 -16 -173 -31 -190 -34 -16 -3 -73 -12 -125 -21 -52
-10 -108 -19 -125 -22 -16 -3 -61 -11 -98 -18 -83 -16 -84 -38 8 210 99 271
97 266 175 480 40 110 85 234 101 275 70 186 189 523 186 526 -2 2 -82 -25
-178 -60 -96 -36 -230 -85 -299 -109 -69 -25 -168 -61 -220 -80 -52 -20 -165
-61 -250 -92 -85 -31 -177 -64 -205 -75 -135 -51 -338 -120 -342 -116 -3 2 2
42 11 88 8 45 18 97 20 113 7 35 46 258 52 295 2 14 17 99 34 190 16 91 32
181 35 200 3 19 15 85 26 145 10 61 22 124 24 140 3 17 8 42 11 57 3 15 7 39
9 55 2 15 6 37 8 48 3 11 8 40 12 65 4 25 9 54 12 65 2 11 6 39 9 63 l6 42
-148 -86 c-82 -48 -295 -171 -474 -274 -179 -103 -397 -229 -485 -280 -88 -51
-184 -106 -212 -122 l-53 -29 -1 23 c0 13 -1 373 -1 800 -1 565 -4 776 -12
771 -6 -4 -94 -77 -196 -163 -102 -85 -193 -162 -204 -170 -10 -8 -23 -20 -30
-25 -10 -10 -152 -129 -610 -513 -94 -78 -173 -139 -177 -135 -4 5 -10 31 -14
58 -9 62 -12 82 -20 120 -4 17 -8 39 -10 50 -5 32 -24 148 -30 175 -5 24 -38
213 -49 275 -3 17 -8 48 -11 70 -4 22 -8 47 -10 55 -2 8 -6 29 -9 45 -9 53
-36 209 -41 235 -7 35 -23 128 -30 170 -3 19 -10 58 -15 85 -5 28 -12 66 -15
85 -5 31 -16 93 -21 113 -1 4 -2 15 -3 24 -1 13 -7 9 -23 -13 -23 -30 -277
-335 -288 -344 -4 -4 -357 -425 -431 -515 -46 -55 -194 -231 -199 -235 -3 -3
-22 -26 -43 -52 -43 -54 -53 -58 -62 -25 -4 12 -43 121 -87 242 -140 383 -149
409 -172 475 -27 76 -133 366 -181 495 -18 50 -48 131 -65 180 -18 50 -34 91
-35 93 -1 1 -87 -145 -191 -325z"/>
</g>
</svg>
